<svg width="24" height="24" viewBox="0 0 24 24" fill="none" xmlns="http://www.w3.org/2000/svg">
<path d="M24 12C24 5.37258 18.6274 0 12 0C5.37258 0 0 5.37258 0 12C0 18.6274 5.37258 24 12 24C18.6274 24 24 18.6274 24 12Z" fill="white"/>
<path fill-rule="evenodd" clip-rule="evenodd" d="M20.9997 12.2088C20.9997 11.5571 20.9412 10.9304 20.8325 10.3287H12.1758V13.8842H17.1225C16.9094 15.0331 16.2618 16.0066 15.2884 16.6584V18.9646H18.2589C19.9969 17.3644 20.9997 15.0081 20.9997 12.2088Z" fill="#4285F4"/>
<path fill-rule="evenodd" clip-rule="evenodd" d="M12.1758 21.1915C14.6575 21.1915 16.7381 20.3685 18.2589 18.9647L15.2884 16.6584C14.4653 17.2099 13.4125 17.5358 12.1758 17.5358C9.78182 17.5358 7.75551 15.9189 7.03272 13.7464H3.96191V16.1278C5.47434 19.1318 8.58275 21.1915 12.1758 21.1915Z" fill="#34A853"/>
<path fill-rule="evenodd" clip-rule="evenodd" d="M7.03283 13.7464C6.849 13.1949 6.74455 12.6058 6.74455 12C6.74455 11.3942 6.849 10.8051 7.03283 10.2536V7.87213H3.96202C3.3395 9.11299 2.98438 10.5168 2.98438 12C2.98438 13.4831 3.3395 14.8869 3.96202 16.1278L7.03283 13.7464Z" fill="#FBBC05"/>
<path fill-rule="evenodd" clip-rule="evenodd" d="M12.1758 6.46419C13.5253 6.46419 14.7369 6.92795 15.6895 7.83875L18.3258 5.20245C16.734 3.71927 14.6533 2.80847 12.1758 2.80847C8.58275 2.80847 5.47434 4.86821 3.96191 7.87217L7.03272 10.2536C7.75551 8.08107 9.78182 6.46419 12.1758 6.46419Z" fill="#EA4335"/>
</svg>
