<svg width="24" height="24" viewBox="0 0 24 24" fill="none" xmlns="http://www.w3.org/2000/svg">
<mask id="path-1-outside-1_1_6792" maskUnits="userSpaceOnUse" x="0.999878" y="1.00024" width="22" height="22" fill="black">
<rect fill="white" x="0.999878" y="1.00024" width="22" height="22"/>
<path d="M7.1894 2.00049C6.7575 2.00478 6.31942 2.06287 5.88276 2.18001C3.09044 2.92809 1.43095 5.80279 2.17951 8.59558C2.2476 8.84891 2.50902 8.99986 2.76283 8.93224L6.90226 7.8237L8.9146 15.3326H3.89995C2.85187 15.3326 1.99999 16.1859 1.99999 17.2373C1.99999 18.2887 2.85187 19.142 3.89995 19.142H4.56326L3.47853 21.311C3.42207 21.424 3.41284 21.5549 3.45284 21.6747C3.49285 21.7946 3.57883 21.8936 3.69186 21.95C3.80489 22.0065 3.93571 22.0157 4.05555 21.9757C4.1754 21.9357 4.27444 21.8497 4.33089 21.7367L5.628 19.142H9.93505L10.6065 21.6467C10.6392 21.7687 10.719 21.8727 10.8284 21.9359C10.9378 21.999 11.0678 22.0161 11.1898 21.9834C11.3118 21.9507 11.4158 21.8708 11.4789 21.7614C11.5421 21.652 11.5592 21.5221 11.5264 21.4001L10.9207 19.142H14.5621L15.8592 21.7367C15.9157 21.8497 16.0147 21.9357 16.1345 21.9757C16.2544 22.0157 16.3852 22.0065 16.4982 21.95C16.6113 21.8936 16.6972 21.7946 16.7372 21.6747C16.7773 21.5549 16.768 21.424 16.7116 21.311L15.6092 19.1077C15.797 19.066 15.9783 18.9987 16.1478 18.9077C16.4245 18.7574 16.68 18.571 16.9077 18.3535L21.4248 13.8221C21.7804 13.4644 21.98 12.9804 21.98 12.476C21.98 11.9715 21.7804 11.4876 21.4248 11.1298C21.2485 10.9529 21.0389 10.8124 20.8082 10.7166C20.5775 10.6208 20.3301 10.5715 20.0803 10.5715C19.8305 10.5715 19.5831 10.6208 19.3524 10.7166C19.1217 10.8124 18.9121 10.9529 18.7358 11.1298L14.5454 15.3326H9.90076L7.82319 7.57608L11.9617 6.46754C12.2155 6.39944 12.3664 6.13707 12.2983 5.88326C11.6669 3.52713 9.52172 1.97764 7.1894 2.00049ZM17.7139 2.00049C17.5876 2.00049 17.4665 2.05066 17.3772 2.13996C17.2879 2.22926 17.2377 2.35038 17.2377 2.47667V3.42903C17.2377 3.55532 17.2879 3.67644 17.3772 3.76574C17.4665 3.85504 17.5876 3.90521 17.7139 3.90521C17.8402 3.90521 17.9613 3.85504 18.0506 3.76574C18.1399 3.67644 18.1901 3.55532 18.1901 3.42903V2.47667C18.1901 2.35038 18.1399 2.22926 18.0506 2.13996C17.9613 2.05066 17.8402 2.00049 17.7139 2.00049ZM7.32463 2.95381C8.17167 2.9716 8.9945 3.23969 9.68943 3.72431C10.3844 4.20893 10.9203 4.88839 11.2298 5.67708L7.12083 6.77801L7.11511 6.77896L7.11035 6.78086L3.00187 7.88227C2.67664 5.75231 3.99994 3.67046 6.12942 3.09999C6.51896 2.99528 6.92133 2.94606 7.32463 2.95381ZM15.0206 3.11666C14.9264 3.11645 14.8342 3.14425 14.7557 3.19654C14.6773 3.24883 14.6162 3.32324 14.5801 3.41033C14.544 3.49742 14.5346 3.59327 14.5531 3.6857C14.5716 3.77814 14.6172 3.86299 14.684 3.9295L15.3573 4.60282C15.4471 4.68956 15.5674 4.73755 15.6923 4.73647C15.8171 4.73538 15.9365 4.6853 16.0248 4.59702C16.1131 4.50873 16.1632 4.3893 16.1643 4.26444C16.1654 4.13959 16.1174 4.01931 16.0306 3.9295L15.3573 3.25618C15.3131 3.2119 15.2607 3.17677 15.2029 3.15283C15.1451 3.12889 15.0832 3.11659 15.0206 3.11666ZM20.4072 3.11666C20.3447 3.11659 20.2827 3.12889 20.2249 3.15283C20.1672 3.17677 20.1147 3.2119 20.0705 3.25618L19.3972 3.9295C19.3105 4.01931 19.2625 4.13959 19.2636 4.26444C19.2647 4.3893 19.3147 4.50873 19.403 4.59702C19.4913 4.6853 19.6107 4.73538 19.7356 4.73647C19.8604 4.73755 19.9807 4.68956 20.0705 4.60282L20.7439 3.9295C20.8107 3.86299 20.8562 3.77814 20.8747 3.6857C20.8932 3.59327 20.8838 3.49742 20.8477 3.41033C20.8117 3.32324 20.7505 3.24883 20.6721 3.19654C20.5937 3.14425 20.5015 3.11645 20.4072 3.11666ZM17.7139 4.38139C16.6625 4.38139 15.8092 5.23471 15.8092 6.28611C15.8092 7.33752 16.6625 8.19083 17.7139 8.19083C18.7653 8.19083 19.6186 7.33752 19.6186 6.28611C19.6186 5.23471 18.7653 4.38139 17.7139 4.38139ZM17.7139 5.33375C17.839 5.33378 17.9629 5.35845 18.0784 5.40636C18.194 5.45426 18.299 5.52445 18.3874 5.61293C18.4759 5.70141 18.546 5.80644 18.5939 5.92203C18.6417 6.03761 18.6663 6.16149 18.6663 6.28659C18.6663 6.41168 18.6416 6.53555 18.5937 6.65111C18.5458 6.76668 18.4756 6.87167 18.3871 6.96011C18.2986 7.04854 18.1936 7.11868 18.078 7.16653C17.9624 7.21437 17.8385 7.23898 17.7134 7.23895C17.4608 7.23888 17.2185 7.13846 17.0399 6.95977C16.8613 6.78108 16.761 6.53876 16.7611 6.28611C16.7611 6.03347 16.8616 5.7912 17.0403 5.61259C17.219 5.43399 17.4613 5.33369 17.7139 5.33375ZM13.9045 5.80993C13.7782 5.80993 13.6571 5.8601 13.5678 5.9494C13.4785 6.0387 13.4283 6.15982 13.4283 6.28611C13.4283 6.4124 13.4785 6.53352 13.5678 6.62282C13.6571 6.71212 13.7782 6.76229 13.9045 6.76229H14.8568C14.9831 6.76229 15.1043 6.71212 15.1936 6.62282C15.2829 6.53352 15.333 6.4124 15.333 6.28611C15.333 6.15982 15.2829 6.0387 15.1936 5.9494C15.1043 5.8601 14.9831 5.80993 14.8568 5.80993H13.9045ZM20.571 5.80993C20.4447 5.80993 20.3236 5.8601 20.2343 5.9494C20.145 6.0387 20.0948 6.15982 20.0948 6.28611C20.0948 6.4124 20.145 6.53352 20.2343 6.62282C20.3236 6.71212 20.4447 6.76229 20.571 6.76229H21.5234C21.6497 6.76229 21.7708 6.71212 21.8601 6.62282C21.9494 6.53352 21.9995 6.4124 21.9995 6.28611C21.9995 6.15982 21.9494 6.0387 21.8601 5.9494C21.7708 5.8601 21.6497 5.80993 21.5234 5.80993H20.571ZM15.694 7.82989C15.6314 7.82982 15.5695 7.84211 15.5117 7.86606C15.4539 7.89 15.4015 7.92512 15.3573 7.96941L14.684 8.64273C14.5947 8.73201 14.5445 8.85311 14.5445 8.97938C14.5445 9.10566 14.5947 9.22676 14.684 9.31604C14.7733 9.40533 14.8944 9.45549 15.0206 9.45549C15.1469 9.45549 15.268 9.40533 15.3573 9.31604L16.0306 8.64273C16.0972 8.57613 16.1425 8.49129 16.1609 8.39894C16.1793 8.30658 16.1698 8.21085 16.1338 8.12385C16.0978 8.03686 16.0368 7.96249 15.9585 7.91017C15.8802 7.85785 15.7881 7.82991 15.694 7.82989ZM19.7339 7.82989C19.6397 7.82991 19.5477 7.85785 19.4694 7.91017C19.3911 7.96249 19.3301 8.03686 19.294 8.12385C19.258 8.21085 19.2486 8.30658 19.2669 8.39894C19.2853 8.49129 19.3306 8.57613 19.3972 8.64273L20.0705 9.31604C20.1147 9.36026 20.1672 9.39532 20.225 9.41925C20.2828 9.44318 20.3447 9.45549 20.4072 9.45549C20.4697 9.45549 20.5316 9.44318 20.5894 9.41925C20.6472 9.39532 20.6996 9.36026 20.7439 9.31604C20.7881 9.27183 20.8231 9.21935 20.8471 9.16158C20.871 9.10382 20.8833 9.04191 20.8833 8.97938C20.8833 8.91686 20.871 8.85495 20.8471 8.79719C20.8231 8.73942 20.7881 8.68694 20.7439 8.64273L20.0705 7.96941C20.0264 7.92512 19.9739 7.89 19.9161 7.86606C19.8584 7.84211 19.7964 7.82982 19.7339 7.82989ZM17.7139 8.66701C17.5876 8.66701 17.4665 8.71718 17.3772 8.80648C17.2879 8.89578 17.2377 9.0169 17.2377 9.14319V10.0956C17.2377 10.2218 17.2879 10.343 17.3772 10.4323C17.4665 10.5216 17.5876 10.5717 17.7139 10.5717C17.8402 10.5717 17.9613 10.5216 18.0506 10.4323C18.1399 10.343 18.1901 10.2218 18.1901 10.0956V9.14319C18.1901 9.0169 18.1399 8.89578 18.0506 8.80648C17.9613 8.71718 17.8402 8.66701 17.7139 8.66701ZM20.0801 11.5241C20.3224 11.5241 20.5658 11.6169 20.7505 11.8022C20.9287 11.9812 21.0287 12.2234 21.0287 12.476C21.0287 12.7285 20.9287 12.9708 20.7505 13.1498L16.2335 17.6811C16.1482 17.7663 15.9382 17.9401 15.7002 18.0668C15.5792 18.1311 15.4521 18.1897 15.333 18.1897H3.89995C3.37662 18.1897 2.95235 17.7625 2.95235 17.2373C2.95235 16.7121 3.37662 16.2849 3.89995 16.2849H14.7435C14.8698 16.2849 14.9909 16.2347 15.0802 16.1454L19.4101 11.8022C19.4979 11.714 19.6023 11.644 19.7173 11.5963C19.8323 11.5485 19.9556 11.524 20.0801 11.5241Z"/>
</mask>
<path d="M7.1894 2.00049C6.7575 2.00478 6.31942 2.06287 5.88276 2.18001C3.09044 2.92809 1.43095 5.80279 2.17951 8.59558C2.2476 8.84891 2.50902 8.99986 2.76283 8.93224L6.90226 7.8237L8.9146 15.3326H3.89995C2.85187 15.3326 1.99999 16.1859 1.99999 17.2373C1.99999 18.2887 2.85187 19.142 3.89995 19.142H4.56326L3.47853 21.311C3.42207 21.424 3.41284 21.5549 3.45284 21.6747C3.49285 21.7946 3.57883 21.8936 3.69186 21.95C3.80489 22.0065 3.93571 22.0157 4.05555 21.9757C4.1754 21.9357 4.27444 21.8497 4.33089 21.7367L5.628 19.142H9.93505L10.6065 21.6467C10.6392 21.7687 10.719 21.8727 10.8284 21.9359C10.9378 21.999 11.0678 22.0161 11.1898 21.9834C11.3118 21.9507 11.4158 21.8708 11.4789 21.7614C11.5421 21.652 11.5592 21.5221 11.5264 21.4001L10.9207 19.142H14.5621L15.8592 21.7367C15.9157 21.8497 16.0147 21.9357 16.1345 21.9757C16.2544 22.0157 16.3852 22.0065 16.4982 21.95C16.6113 21.8936 16.6972 21.7946 16.7372 21.6747C16.7773 21.5549 16.768 21.424 16.7116 21.311L15.6092 19.1077C15.797 19.066 15.9783 18.9987 16.1478 18.9077C16.4245 18.7574 16.68 18.571 16.9077 18.3535L21.4248 13.8221C21.7804 13.4644 21.98 12.9804 21.98 12.476C21.98 11.9715 21.7804 11.4876 21.4248 11.1298C21.2485 10.9529 21.0389 10.8124 20.8082 10.7166C20.5775 10.6208 20.3301 10.5715 20.0803 10.5715C19.8305 10.5715 19.5831 10.6208 19.3524 10.7166C19.1217 10.8124 18.9121 10.9529 18.7358 11.1298L14.5454 15.3326H9.90076L7.82319 7.57608L11.9617 6.46754C12.2155 6.39944 12.3664 6.13707 12.2983 5.88326C11.6669 3.52713 9.52172 1.97764 7.1894 2.00049ZM17.7139 2.00049C17.5876 2.00049 17.4665 2.05066 17.3772 2.13996C17.2879 2.22926 17.2377 2.35038 17.2377 2.47667V3.42903C17.2377 3.55532 17.2879 3.67644 17.3772 3.76574C17.4665 3.85504 17.5876 3.90521 17.7139 3.90521C17.8402 3.90521 17.9613 3.85504 18.0506 3.76574C18.1399 3.67644 18.1901 3.55532 18.1901 3.42903V2.47667C18.1901 2.35038 18.1399 2.22926 18.0506 2.13996C17.9613 2.05066 17.8402 2.00049 17.7139 2.00049ZM7.32463 2.95381C8.17167 2.9716 8.9945 3.23969 9.68943 3.72431C10.3844 4.20893 10.9203 4.88839 11.2298 5.67708L7.12083 6.77801L7.11511 6.77896L7.11035 6.78086L3.00187 7.88227C2.67664 5.75231 3.99994 3.67046 6.12942 3.09999C6.51896 2.99528 6.92133 2.94606 7.32463 2.95381ZM15.0206 3.11666C14.9264 3.11645 14.8342 3.14425 14.7557 3.19654C14.6773 3.24883 14.6162 3.32324 14.5801 3.41033C14.544 3.49742 14.5346 3.59327 14.5531 3.6857C14.5716 3.77814 14.6172 3.86299 14.684 3.9295L15.3573 4.60282C15.4471 4.68956 15.5674 4.73755 15.6923 4.73647C15.8171 4.73538 15.9365 4.6853 16.0248 4.59702C16.1131 4.50873 16.1632 4.3893 16.1643 4.26444C16.1654 4.13959 16.1174 4.01931 16.0306 3.9295L15.3573 3.25618C15.3131 3.2119 15.2607 3.17677 15.2029 3.15283C15.1451 3.12889 15.0832 3.11659 15.0206 3.11666ZM20.4072 3.11666C20.3447 3.11659 20.2827 3.12889 20.2249 3.15283C20.1672 3.17677 20.1147 3.2119 20.0705 3.25618L19.3972 3.9295C19.3105 4.01931 19.2625 4.13959 19.2636 4.26444C19.2647 4.3893 19.3147 4.50873 19.403 4.59702C19.4913 4.6853 19.6107 4.73538 19.7356 4.73647C19.8604 4.73755 19.9807 4.68956 20.0705 4.60282L20.7439 3.9295C20.8107 3.86299 20.8562 3.77814 20.8747 3.6857C20.8932 3.59327 20.8838 3.49742 20.8477 3.41033C20.8117 3.32324 20.7505 3.24883 20.6721 3.19654C20.5937 3.14425 20.5015 3.11645 20.4072 3.11666ZM17.7139 4.38139C16.6625 4.38139 15.8092 5.23471 15.8092 6.28611C15.8092 7.33752 16.6625 8.19083 17.7139 8.19083C18.7653 8.19083 19.6186 7.33752 19.6186 6.28611C19.6186 5.23471 18.7653 4.38139 17.7139 4.38139ZM17.7139 5.33375C17.839 5.33378 17.9629 5.35845 18.0784 5.40636C18.194 5.45426 18.299 5.52445 18.3874 5.61293C18.4759 5.70141 18.546 5.80644 18.5939 5.92203C18.6417 6.03761 18.6663 6.16149 18.6663 6.28659C18.6663 6.41168 18.6416 6.53555 18.5937 6.65111C18.5458 6.76668 18.4756 6.87167 18.3871 6.96011C18.2986 7.04854 18.1936 7.11868 18.078 7.16653C17.9624 7.21437 17.8385 7.23898 17.7134 7.23895C17.4608 7.23888 17.2185 7.13846 17.0399 6.95977C16.8613 6.78108 16.761 6.53876 16.7611 6.28611C16.7611 6.03347 16.8616 5.7912 17.0403 5.61259C17.219 5.43399 17.4613 5.33369 17.7139 5.33375ZM13.9045 5.80993C13.7782 5.80993 13.6571 5.8601 13.5678 5.9494C13.4785 6.0387 13.4283 6.15982 13.4283 6.28611C13.4283 6.4124 13.4785 6.53352 13.5678 6.62282C13.6571 6.71212 13.7782 6.76229 13.9045 6.76229H14.8568C14.9831 6.76229 15.1043 6.71212 15.1936 6.62282C15.2829 6.53352 15.333 6.4124 15.333 6.28611C15.333 6.15982 15.2829 6.0387 15.1936 5.9494C15.1043 5.8601 14.9831 5.80993 14.8568 5.80993H13.9045ZM20.571 5.80993C20.4447 5.80993 20.3236 5.8601 20.2343 5.9494C20.145 6.0387 20.0948 6.15982 20.0948 6.28611C20.0948 6.4124 20.145 6.53352 20.2343 6.62282C20.3236 6.71212 20.4447 6.76229 20.571 6.76229H21.5234C21.6497 6.76229 21.7708 6.71212 21.8601 6.62282C21.9494 6.53352 21.9995 6.4124 21.9995 6.28611C21.9995 6.15982 21.9494 6.0387 21.8601 5.9494C21.7708 5.8601 21.6497 5.80993 21.5234 5.80993H20.571ZM15.694 7.82989C15.6314 7.82982 15.5695 7.84211 15.5117 7.86606C15.4539 7.89 15.4015 7.92512 15.3573 7.96941L14.684 8.64273C14.5947 8.73201 14.5445 8.85311 14.5445 8.97938C14.5445 9.10566 14.5947 9.22676 14.684 9.31604C14.7733 9.40533 14.8944 9.45549 15.0206 9.45549C15.1469 9.45549 15.268 9.40533 15.3573 9.31604L16.0306 8.64273C16.0972 8.57613 16.1425 8.49129 16.1609 8.39894C16.1793 8.30658 16.1698 8.21085 16.1338 8.12385C16.0978 8.03686 16.0368 7.96249 15.9585 7.91017C15.8802 7.85785 15.7881 7.82991 15.694 7.82989ZM19.7339 7.82989C19.6397 7.82991 19.5477 7.85785 19.4694 7.91017C19.3911 7.96249 19.3301 8.03686 19.294 8.12385C19.258 8.21085 19.2486 8.30658 19.2669 8.39894C19.2853 8.49129 19.3306 8.57613 19.3972 8.64273L20.0705 9.31604C20.1147 9.36026 20.1672 9.39532 20.225 9.41925C20.2828 9.44318 20.3447 9.45549 20.4072 9.45549C20.4697 9.45549 20.5316 9.44318 20.5894 9.41925C20.6472 9.39532 20.6996 9.36026 20.7439 9.31604C20.7881 9.27183 20.8231 9.21935 20.8471 9.16158C20.871 9.10382 20.8833 9.04191 20.8833 8.97938C20.8833 8.91686 20.871 8.85495 20.8471 8.79719C20.8231 8.73942 20.7881 8.68694 20.7439 8.64273L20.0705 7.96941C20.0264 7.92512 19.9739 7.89 19.9161 7.86606C19.8584 7.84211 19.7964 7.82982 19.7339 7.82989ZM17.7139 8.66701C17.5876 8.66701 17.4665 8.71718 17.3772 8.80648C17.2879 8.89578 17.2377 9.0169 17.2377 9.14319V10.0956C17.2377 10.2218 17.2879 10.343 17.3772 10.4323C17.4665 10.5216 17.5876 10.5717 17.7139 10.5717C17.8402 10.5717 17.9613 10.5216 18.0506 10.4323C18.1399 10.343 18.1901 10.2218 18.1901 10.0956V9.14319C18.1901 9.0169 18.1399 8.89578 18.0506 8.80648C17.9613 8.71718 17.8402 8.66701 17.7139 8.66701ZM20.0801 11.5241C20.3224 11.5241 20.5658 11.6169 20.7505 11.8022C20.9287 11.9812 21.0287 12.2234 21.0287 12.476C21.0287 12.7285 20.9287 12.9708 20.7505 13.1498L16.2335 17.6811C16.1482 17.7663 15.9382 17.9401 15.7002 18.0668C15.5792 18.1311 15.4521 18.1897 15.333 18.1897H3.89995C3.37662 18.1897 2.95235 17.7625 2.95235 17.2373C2.95235 16.7121 3.37662 16.2849 3.89995 16.2849H14.7435C14.8698 16.2849 14.9909 16.2347 15.0802 16.1454L19.4101 11.8022C19.4979 11.714 19.6023 11.644 19.7173 11.5963C19.8323 11.5485 19.9556 11.524 20.0801 11.5241Z" fill="#101317"/>
<path d="M7.1894 2.00049C6.7575 2.00478 6.31942 2.06287 5.88276 2.18001C3.09044 2.92809 1.43095 5.80279 2.17951 8.59558C2.2476 8.84891 2.50902 8.99986 2.76283 8.93224L6.90226 7.8237L8.9146 15.3326H3.89995C2.85187 15.3326 1.99999 16.1859 1.99999 17.2373C1.99999 18.2887 2.85187 19.142 3.89995 19.142H4.56326L3.47853 21.311C3.42207 21.424 3.41284 21.5549 3.45284 21.6747C3.49285 21.7946 3.57883 21.8936 3.69186 21.95C3.80489 22.0065 3.93571 22.0157 4.05555 21.9757C4.1754 21.9357 4.27444 21.8497 4.33089 21.7367L5.628 19.142H9.93505L10.6065 21.6467C10.6392 21.7687 10.719 21.8727 10.8284 21.9359C10.9378 21.999 11.0678 22.0161 11.1898 21.9834C11.3118 21.9507 11.4158 21.8708 11.4789 21.7614C11.5421 21.652 11.5592 21.5221 11.5264 21.4001L10.9207 19.142H14.5621L15.8592 21.7367C15.9157 21.8497 16.0147 21.9357 16.1345 21.9757C16.2544 22.0157 16.3852 22.0065 16.4982 21.95C16.6113 21.8936 16.6972 21.7946 16.7372 21.6747C16.7773 21.5549 16.768 21.424 16.7116 21.311L15.6092 19.1077C15.797 19.066 15.9783 18.9987 16.1478 18.9077C16.4245 18.7574 16.68 18.571 16.9077 18.3535L21.4248 13.8221C21.7804 13.4644 21.98 12.9804 21.98 12.476C21.98 11.9715 21.7804 11.4876 21.4248 11.1298C21.2485 10.9529 21.0389 10.8124 20.8082 10.7166C20.5775 10.6208 20.3301 10.5715 20.0803 10.5715C19.8305 10.5715 19.5831 10.6208 19.3524 10.7166C19.1217 10.8124 18.9121 10.9529 18.7358 11.1298L14.5454 15.3326H9.90076L7.82319 7.57608L11.9617 6.46754C12.2155 6.39944 12.3664 6.13707 12.2983 5.88326C11.6669 3.52713 9.52172 1.97764 7.1894 2.00049ZM17.7139 2.00049C17.5876 2.00049 17.4665 2.05066 17.3772 2.13996C17.2879 2.22926 17.2377 2.35038 17.2377 2.47667V3.42903C17.2377 3.55532 17.2879 3.67644 17.3772 3.76574C17.4665 3.85504 17.5876 3.90521 17.7139 3.90521C17.8402 3.90521 17.9613 3.85504 18.0506 3.76574C18.1399 3.67644 18.1901 3.55532 18.1901 3.42903V2.47667C18.1901 2.35038 18.1399 2.22926 18.0506 2.13996C17.9613 2.05066 17.8402 2.00049 17.7139 2.00049ZM7.32463 2.95381C8.17167 2.9716 8.9945 3.23969 9.68943 3.72431C10.3844 4.20893 10.9203 4.88839 11.2298 5.67708L7.12083 6.77801L7.11511 6.77896L7.11035 6.78086L3.00187 7.88227C2.67664 5.75231 3.99994 3.67046 6.12942 3.09999C6.51896 2.99528 6.92133 2.94606 7.32463 2.95381ZM15.0206 3.11666C14.9264 3.11645 14.8342 3.14425 14.7557 3.19654C14.6773 3.24883 14.6162 3.32324 14.5801 3.41033C14.544 3.49742 14.5346 3.59327 14.5531 3.6857C14.5716 3.77814 14.6172 3.86299 14.684 3.9295L15.3573 4.60282C15.4471 4.68956 15.5674 4.73755 15.6923 4.73647C15.8171 4.73538 15.9365 4.6853 16.0248 4.59702C16.1131 4.50873 16.1632 4.3893 16.1643 4.26444C16.1654 4.13959 16.1174 4.01931 16.0306 3.9295L15.3573 3.25618C15.3131 3.2119 15.2607 3.17677 15.2029 3.15283C15.1451 3.12889 15.0832 3.11659 15.0206 3.11666ZM20.4072 3.11666C20.3447 3.11659 20.2827 3.12889 20.2249 3.15283C20.1672 3.17677 20.1147 3.2119 20.0705 3.25618L19.3972 3.9295C19.3105 4.01931 19.2625 4.13959 19.2636 4.26444C19.2647 4.3893 19.3147 4.50873 19.403 4.59702C19.4913 4.6853 19.6107 4.73538 19.7356 4.73647C19.8604 4.73755 19.9807 4.68956 20.0705 4.60282L20.7439 3.9295C20.8107 3.86299 20.8562 3.77814 20.8747 3.6857C20.8932 3.59327 20.8838 3.49742 20.8477 3.41033C20.8117 3.32324 20.7505 3.24883 20.6721 3.19654C20.5937 3.14425 20.5015 3.11645 20.4072 3.11666ZM17.7139 4.38139C16.6625 4.38139 15.8092 5.23471 15.8092 6.28611C15.8092 7.33752 16.6625 8.19083 17.7139 8.19083C18.7653 8.19083 19.6186 7.33752 19.6186 6.28611C19.6186 5.23471 18.7653 4.38139 17.7139 4.38139ZM17.7139 5.33375C17.839 5.33378 17.9629 5.35845 18.0784 5.40636C18.194 5.45426 18.299 5.52445 18.3874 5.61293C18.4759 5.70141 18.546 5.80644 18.5939 5.92203C18.6417 6.03761 18.6663 6.16149 18.6663 6.28659C18.6663 6.41168 18.6416 6.53555 18.5937 6.65111C18.5458 6.76668 18.4756 6.87167 18.3871 6.96011C18.2986 7.04854 18.1936 7.11868 18.078 7.16653C17.9624 7.21437 17.8385 7.23898 17.7134 7.23895C17.4608 7.23888 17.2185 7.13846 17.0399 6.95977C16.8613 6.78108 16.761 6.53876 16.7611 6.28611C16.7611 6.03347 16.8616 5.7912 17.0403 5.61259C17.219 5.43399 17.4613 5.33369 17.7139 5.33375ZM13.9045 5.80993C13.7782 5.80993 13.6571 5.8601 13.5678 5.9494C13.4785 6.0387 13.4283 6.15982 13.4283 6.28611C13.4283 6.4124 13.4785 6.53352 13.5678 6.62282C13.6571 6.71212 13.7782 6.76229 13.9045 6.76229H14.8568C14.9831 6.76229 15.1043 6.71212 15.1936 6.62282C15.2829 6.53352 15.333 6.4124 15.333 6.28611C15.333 6.15982 15.2829 6.0387 15.1936 5.9494C15.1043 5.8601 14.9831 5.80993 14.8568 5.80993H13.9045ZM20.571 5.80993C20.4447 5.80993 20.3236 5.8601 20.2343 5.9494C20.145 6.0387 20.0948 6.15982 20.0948 6.28611C20.0948 6.4124 20.145 6.53352 20.2343 6.62282C20.3236 6.71212 20.4447 6.76229 20.571 6.76229H21.5234C21.6497 6.76229 21.7708 6.71212 21.8601 6.62282C21.9494 6.53352 21.9995 6.4124 21.9995 6.28611C21.9995 6.15982 21.9494 6.0387 21.8601 5.9494C21.7708 5.8601 21.6497 5.80993 21.5234 5.80993H20.571ZM15.694 7.82989C15.6314 7.82982 15.5695 7.84211 15.5117 7.86606C15.4539 7.89 15.4015 7.92512 15.3573 7.96941L14.684 8.64273C14.5947 8.73201 14.5445 8.85311 14.5445 8.97938C14.5445 9.10566 14.5947 9.22676 14.684 9.31604C14.7733 9.40533 14.8944 9.45549 15.0206 9.45549C15.1469 9.45549 15.268 9.40533 15.3573 9.31604L16.0306 8.64273C16.0972 8.57613 16.1425 8.49129 16.1609 8.39894C16.1793 8.30658 16.1698 8.21085 16.1338 8.12385C16.0978 8.03686 16.0368 7.96249 15.9585 7.91017C15.8802 7.85785 15.7881 7.82991 15.694 7.82989ZM19.7339 7.82989C19.6397 7.82991 19.5477 7.85785 19.4694 7.91017C19.3911 7.96249 19.3301 8.03686 19.294 8.12385C19.258 8.21085 19.2486 8.30658 19.2669 8.39894C19.2853 8.49129 19.3306 8.57613 19.3972 8.64273L20.0705 9.31604C20.1147 9.36026 20.1672 9.39532 20.225 9.41925C20.2828 9.44318 20.3447 9.45549 20.4072 9.45549C20.4697 9.45549 20.5316 9.44318 20.5894 9.41925C20.6472 9.39532 20.6996 9.36026 20.7439 9.31604C20.7881 9.27183 20.8231 9.21935 20.8471 9.16158C20.871 9.10382 20.8833 9.04191 20.8833 8.97938C20.8833 8.91686 20.871 8.85495 20.8471 8.79719C20.8231 8.73942 20.7881 8.68694 20.7439 8.64273L20.0705 7.96941C20.0264 7.92512 19.9739 7.89 19.9161 7.86606C19.8584 7.84211 19.7964 7.82982 19.7339 7.82989ZM17.7139 8.66701C17.5876 8.66701 17.4665 8.71718 17.3772 8.80648C17.2879 8.89578 17.2377 9.0169 17.2377 9.14319V10.0956C17.2377 10.2218 17.2879 10.343 17.3772 10.4323C17.4665 10.5216 17.5876 10.5717 17.7139 10.5717C17.8402 10.5717 17.9613 10.5216 18.0506 10.4323C18.1399 10.343 18.1901 10.2218 18.1901 10.0956V9.14319C18.1901 9.0169 18.1399 8.89578 18.0506 8.80648C17.9613 8.71718 17.8402 8.66701 17.7139 8.66701ZM20.0801 11.5241C20.3224 11.5241 20.5658 11.6169 20.7505 11.8022C20.9287 11.9812 21.0287 12.2234 21.0287 12.476C21.0287 12.7285 20.9287 12.9708 20.7505 13.1498L16.2335 17.6811C16.1482 17.7663 15.9382 17.9401 15.7002 18.0668C15.5792 18.1311 15.4521 18.1897 15.333 18.1897H3.89995C3.37662 18.1897 2.95235 17.7625 2.95235 17.2373C2.95235 16.7121 3.37662 16.2849 3.89995 16.2849H14.7435C14.8698 16.2849 14.9909 16.2347 15.0802 16.1454L19.4101 11.8022C19.4979 11.714 19.6023 11.644 19.7173 11.5963C19.8323 11.5485 19.9556 11.524 20.0801 11.5241Z" stroke="#101317" stroke-width="0.4" mask="url(#path-1-outside-1_1_6792)"/>
</svg>
